<svg xmlns="http://www.w3.org/2000/svg" viewBox="0 0 32 32">
  <defs>
    <linearGradient id="grad" x1="0%" y1="0%" x2="100%" y2="100%">
      <stop offset="0%" style="stop-color:#3F51B5;stop-opacity:1" />
      <stop offset="100%" style="stop-color:#7C4DFF;stop-opacity:1" />
    </linearGradient>
  </defs>
  <!-- Background rounded square -->
  <rect x="1" y="1" width="30" height="30" rx="6" fill="url(#grad)"/>
  <!-- Location pin with road -->
  <path d="M16 6 C12.5 6 10 8.5 10 12 C10 16 16 22 16 22 C16 22 22 16 22 12 C22 8.5 19.5 6 16 6 Z" fill="#fff"/>
  <circle cx="16" cy="12" r="3" fill="#3F51B5"/>
  <!-- Two people sharing -->
  <circle cx="14.5" cy="11" r="1.5" fill="#3F51B5"/>
  <circle cx="17.5" cy="11" r="1.5" fill="#3F51B5"/>
  <path d="M13 14 Q14.5 13 16 14 Q17.5 13 19 14" stroke="#3F51B5" stroke-width="1" fill="none"/>
  <!-- Road lines at bottom -->
  <rect x="14" y="24" width="4" height="2" rx="1" fill="#fff"/>
  <rect x="14" y="27" width="4" height="2" rx="1" fill="#fff" opacity="0.6"/>
</svg>
